<?xml version="1.0" encoding="utf-8"?>
<!-- Generator: Adobe Illustrator 27.5.0, SVG Export Plug-In . SVG Version: 6.00 Build 0)  -->
<svg version="1.1" xmlns="http://www.w3.org/2000/svg" xmlns:xlink="http://www.w3.org/1999/xlink" x="0px" y="0px"
	 viewBox="0 0 500 500" style="enable-background:new 0 0 500 500;" xml:space="preserve">
<g id="Background_Simple">
	<g>
		<path style="fill:#92E3A9;" d="M376.715,90.206c-5.532-3.975-11.2-7.847-16.967-11.7c-27.959-18.676-60.129-37.749-93.839-42.081
			c-5.672-0.729-11.421-0.977-17.115-0.341c-22.298,2.49-44.386,18.961-62.206,31.559c-27.528,19.462-53.275,41.834-76.747,66.186
			c-20.379,21.143-41.304,44.807-53.175,72.223c-15.404,35.575,8.058,77.567,28.7,106.403c40.064,55.97,95.7,99.694,165.479,105.931
			c84.274,7.533,160.529-58.607,189.152-135.796c17.023-45.906,18.229-101.421-11.171-142.511
			C414.233,119.684,396.328,104.298,376.715,90.206z"/>
		<path style="opacity:0.7;fill:#FFFFFF;" d="M376.715,90.206c-5.532-3.975-11.2-7.847-16.967-11.7
			c-27.959-18.676-60.129-37.749-93.839-42.081c-5.672-0.729-11.421-0.977-17.115-0.341c-22.298,2.49-44.386,18.961-62.206,31.559
			c-27.528,19.462-53.275,41.834-76.747,66.186c-20.379,21.143-41.304,44.807-53.175,72.223
			c-15.404,35.575,8.058,77.567,28.7,106.403c40.064,55.97,95.7,99.694,165.479,105.931
			c84.274,7.533,160.529-58.607,189.152-135.796c17.023-45.906,18.229-101.421-11.171-142.511
			C414.233,119.684,396.328,104.298,376.715,90.206z"/>
	</g>
</g>
<g id="Seats_2">
	<g>
		<path style="fill:#CFCFCF;stroke:#263238;stroke-linecap:round;stroke-linejoin:round;stroke-miterlimit:10;" d="M107.354,342.945
			H65.7c-16.027,0-29.02,12.993-29.02,29.02v28.844h99.693v-28.844C136.373,355.937,123.381,342.945,107.354,342.945z"/>
		<path style="fill:#CFCFCF;stroke:#263238;stroke-linecap:round;stroke-linejoin:round;stroke-miterlimit:10;" d="M215.412,342.945
			h-41.653c-16.027,0-29.02,12.993-29.02,29.02v28.844h99.693v-28.844C244.432,355.937,231.44,342.945,215.412,342.945z"/>
		<path style="fill:#CFCFCF;stroke:#263238;stroke-linecap:round;stroke-linejoin:round;stroke-miterlimit:10;" d="M323.471,342.945
			h-41.654c-16.027,0-29.02,12.993-29.02,29.02v28.844h99.693v-28.844C352.491,355.937,339.499,342.945,323.471,342.945z"/>
		<path style="fill:#CFCFCF;stroke:#263238;stroke-linecap:round;stroke-linejoin:round;stroke-miterlimit:10;" d="M431.53,342.945
			h-41.654c-16.027,0-29.02,12.993-29.02,29.02v28.844h99.693v-28.844C460.55,355.937,447.557,342.945,431.53,342.945z"/>
	</g>
</g>
<g id="Character_2">
	<g>
		<path style="fill:#FFFFFF;stroke:#263238;stroke-linecap:round;stroke-linejoin:round;stroke-miterlimit:10;" d="M242.367,234.265
			l-1.382,16.43c0,0,7.985,7.063,11.823,7.063c3.839,0,11.823-6.91,12.438-7.37c0.614-0.461-1.535-15.662-1.535-15.662
			S251.887,239.333,242.367,234.265z"/>
		<g>
			<path style="fill:none;stroke:#263238;stroke-linecap:round;stroke-linejoin:round;stroke-miterlimit:10;" d="M236.225,216.454
				c0,0-2.457-3.378-3.992,0.614c-1.535,3.992,1.536,7.677,2.917,8.752c1.382,1.075,2.457,1.536,2.457,1.536L236.225,216.454z"/>
			<path style="fill:#FFFFFF;stroke:#263238;stroke-linecap:round;stroke-linejoin:round;stroke-miterlimit:10;" d="M270.2,216.454
				c0,0,2.457-3.378,3.992,0.614c1.535,3.992-1.535,7.677-2.917,8.752c-1.382,1.075-2.457,1.536-2.457,1.536L270.2,216.454z"/>
			<path style="fill:#263238;stroke:#263238;stroke-linecap:round;stroke-linejoin:round;stroke-miterlimit:10;" d="M261.56,190.503
				c0,0-3.532-4.453-9.981-5.067c-6.449-0.614-9.52,4.453-9.981,4.914c-0.461,0.461-8.292,6.295-8.906,11.363
				c-0.614,5.067,2.917,12.898,3.225,13.512c0.307,0.614,1.536,2.917,1.536,1.382c0-1.536,0-10.749,0.307-12.898
				s5.528-8.292,5.528-8.292s5.988,3.225,9.981,2.457c3.992-0.768,5.528-1.689,5.988-1.843c0.461-0.153,5.681,5.067,6.91,5.989
				c1.228,0.921,2.457,14.434,3.532,14.587c1.075,0.154,1.996-0.307,2.15-2.917c0.154-2.61,0.307-9.367-0.614-14.28
				C270.313,194.496,267.395,189.889,261.56,190.503z"/>
			<g>
				<path style="fill:#FFFFFF;stroke:#263238;stroke-linecap:round;stroke-linejoin:round;stroke-miterlimit:10;" d="
					M242.52,193.114c0,0-5.988,6.295-6.449,10.288c-0.461,3.992-0.154,18.58,1.689,25.029c1.843,6.449,9.213,15.509,14.587,16.123
					c5.374,0.614,10.595-5.528,14.741-11.056c4.146-5.528,3.225-22.265,2.61-27.025c-0.614-4.76-6.142-9.52-7.524-10.902
					c-1.382-1.382-2.457-2.15-4.453-1.382c-1.996,0.768-4.76,2.61-7.524,1.843C247.434,195.264,242.52,193.114,242.52,193.114z"/>
				<polyline style="fill:none;stroke:#263238;stroke-linecap:round;stroke-linejoin:round;stroke-miterlimit:10;" points="
					255.495,202.173 257.952,211.54 253.653,214.611 				"/>
				<path style="fill:#263238;" d="M247.818,207.087c0,1.103-0.447,1.996-0.998,1.996c-0.551,0-0.998-0.894-0.998-1.996
					c0-1.102,0.447-1.996,0.998-1.996C247.371,205.091,247.818,205.984,247.818,207.087z"/>
				<path style="fill:#263238;" d="M261.33,207.087c0,1.103-0.447,1.996-0.998,1.996c-0.551,0-0.998-0.894-0.998-1.996
					c0-1.102,0.447-1.996,0.998-1.996C260.883,205.091,261.33,205.984,261.33,207.087z"/>
				<path style="fill:none;stroke:#263238;stroke-linecap:round;stroke-linejoin:round;stroke-miterlimit:10;" d="M242.751,202.788
					c0,0,1.689-3.071,6.91-1.075"/>
				<path style="fill:none;stroke:#263238;stroke-linecap:round;stroke-linejoin:round;stroke-miterlimit:10;" d="M257.491,201.406
					c0,0,3.378-2.15,6.756,0.461"/>
				<g>
					<path style="fill:none;stroke:#263238;stroke-linecap:round;stroke-linejoin:round;stroke-miterlimit:10;" d="M244.593,216.146
						c0,0,3.839,4.146,8.752,3.839c4.914-0.307,10.288-3.225,10.288-3.225"/>
					<path style="fill:#263238;stroke:#263238;stroke-linecap:round;stroke-linejoin:round;stroke-miterlimit:10;" d="
						M246.743,218.296c0,0,1.843,7.217,5.835,8.292c3.992,1.075,7.217-8.138,7.217-8.138s-3.532,1.689-6.449,1.535
						C250.428,219.832,246.743,218.296,246.743,218.296z"/>
					
						<line style="fill:none;stroke:#263238;stroke-linecap:round;stroke-linejoin:round;stroke-miterlimit:10;" x1="245.668" y1="215.072" x2="243.058" y2="217.528"/>
					
						<line style="fill:none;stroke:#263238;stroke-linecap:round;stroke-linejoin:round;stroke-miterlimit:10;" x1="262.712" y1="215.072" x2="264.555" y2="218.296"/>
					<path style="fill:#FFFFFF;stroke:#263238;stroke-linecap:round;stroke-linejoin:round;stroke-miterlimit:10;" d="
						M256.48,224.65c-3.044-1.159-5.327-0.658-6.684-0.041c0.774,0.932,1.696,1.686,2.782,1.978
						C254.017,226.975,255.355,226.023,256.48,224.65z"/>
				</g>
			</g>
		</g>
		<g>
			<g>
				<g>
					<g>
						<g>
							<path style="fill:#FFFFFF;stroke:#263238;stroke-linecap:round;stroke-linejoin:round;stroke-miterlimit:10;" d="
								M335.528,156.875c0,0-15.986,25.085-20.167,30.988c-4.181,5.902-10.821,19.183-10.821,19.183l-12.297,20.659l-26.998,22.683
								c0,0-9.155,7.075-12.438,7.37c-3.283,0.296-11.823-7.063-11.823-7.063s-16.373-13.891-20.062-18.564
								c-3.689-4.673-13.526-18.937-17.215-25.823s-36.398-51.646-36.398-51.646l-3.443,11.313c0,0,11.313,33.447,17.953,43.285
								c6.64,9.837,13.035,16.478,13.035,16.478s11.805,26.315,15.248,31.726c3.443,5.411,4.673,9.591,4.673,9.591
								s6.148,46.236,6.394,48.695c0.246,2.459-4.673,55.336-4.673,55.336l-6.932,69.461l35.051,0.14l5.299-41.233h6.605
								l5.431,40.567l0.083,0.736l33.62,0.134l-7.342-72.509l-4.673-49.925l6.394-50.909c0,0,13.526-24.594,14.264-25.823
								c0.738-1.23,18.937-27.545,22.872-41.563c3.935-14.018,14.756-38.858,14.756-38.858L335.528,156.875z"/>
							<g>
								
									<line style="fill:none;stroke:#263238;stroke-linecap:round;stroke-linejoin:round;stroke-miterlimit:10;" x1="222.564" y1="370.194" x2="237.484" y2="382.509"/>
								
									<line style="fill:none;stroke:#263238;stroke-linecap:round;stroke-linejoin:round;stroke-miterlimit:10;" x1="224.932" y1="375.878" x2="238.431" y2="386.062"/>
								
									<line style="fill:none;stroke:#263238;stroke-linecap:round;stroke-linejoin:round;stroke-miterlimit:10;" x1="280.823" y1="372.326" x2="266.614" y2="383.93"/>
								
									<line style="fill:none;stroke:#263238;stroke-linecap:round;stroke-linejoin:round;stroke-miterlimit:10;" x1="272.771" y1="381.562" x2="260.93" y2="390.088"/>
							</g>
						</g>
						<path style="fill:#263238;" d="M176.027,166.661l-5.296,14.88l12.099-5.444C180.439,172.769,178.117,169.551,176.027,166.661z
							"/>
					</g>
					<path style="fill:#263238;" d="M327.749,169.013l6.047,12.095c1.747-4.506,3.495-8.801,4.921-12.235l-7.065-5.935
						C330.496,164.742,329.158,166.825,327.749,169.013z"/>
				</g>
			</g>
			<path style="fill:#263238;stroke:#263238;stroke-linecap:round;stroke-linejoin:round;stroke-miterlimit:10;" d="
				M303.015,244.003c-4.281-2.9-9.53-7.376-13.743-13.801l-24.026,20.186c0,0-9.154,7.075-12.438,7.37
				c-3.283,0.296-11.823-7.063-11.823-7.063s-16.373-13.891-20.062-18.564c-0.616-0.78-1.413-1.845-2.314-3.08l-14.679,16.341
				c2.519,5.282,4.909,10.085,6.173,12.07c3.443,5.411,4.673,9.591,4.673,9.591s6.148,46.236,6.394,48.695
				c0.195,1.952-2.863,35.665-4.133,49.49c8.955,1.514,37.105,5.352,71.052,0.773l-4.451-47.558l6.394-50.909
				C290.03,267.546,299.486,250.354,303.015,244.003z"/>
		</g>
		<path style="fill:#9C9C9C;stroke:#263238;stroke-linecap:round;stroke-linejoin:round;stroke-miterlimit:10;" d="M239.276,248.726
			c0,0,6.748,28.398,14.34,46.955c7.591,18.557,8.31,19.246,8.31,19.246l3.781-0.97c0,0,3.374-41.05,3.655-48.923
			c0.281-7.873-0.844-16.589-0.844-16.589l-3.271,1.943c0,0,0.741,39.388-2.633,54.852c0,0-1.968,1.687-8.435-16.589
			c-6.467-18.276-10.966-35.708-10.966-35.708L239.276,248.726z"/>
		
			<rect x="258.676" y="314.238" transform="matrix(0.976 -0.2176 0.2176 0.976 -65.1298 66.0365)" style="fill:#FFFFFF;stroke:#263238;stroke-linecap:round;stroke-linejoin:round;stroke-miterlimit:10;" width="17.151" height="28.96"/>
		<g>
			<g>
				<path style="fill:#92E3A9;stroke:#263238;stroke-linecap:round;stroke-linejoin:round;stroke-miterlimit:10;" d="
					M350.824,167.715c-1.312-9.181-0.656-21.313-0.656-21.313c-0.656-5.574-2.295-5.246-15.083-4.918
					c-10.284,0.264-53.653,2.224-70.24,2.981c-2.9,0.132-5.793,0.14-8.694,0.024c-15.581-0.625-68.247-2.727-79.113-3.005
					c-12.788-0.328-14.428-0.656-15.083,4.918c0,0,0.656,12.132-0.656,21.313c-1.312,9.181-16.395,47.217-16.395,47.217
					l19.346,13.772c0,0,7.542-8.853,9.837-26.888s-0.328-30.494,3.607-33.773c3.219-2.683,53.625-0.317,71.854,0.632
					c4.341,0.226,8.687,0.226,13.028,0c18.228-0.949,68.634-3.314,71.854-0.632c3.935,3.279,1.312,15.739,3.607,33.773
					c2.295,18.034,9.837,26.888,9.837,26.888l19.346-13.772C367.219,214.933,352.135,176.896,350.824,167.715z"/>
				<g>
					<path style="fill:#FFFFFF;stroke:#263238;stroke-linecap:round;stroke-linejoin:round;stroke-miterlimit:10;" d="
						M357.586,189.484l-19.252,14.336c0.298,1.926,0.65,3.739,1.047,5.439l20.121-14.52
						C358.863,193.005,358.219,191.242,357.586,189.484z"/>
					<path style="fill:#FFFFFF;stroke:#263238;stroke-linecap:round;stroke-linejoin:round;stroke-miterlimit:10;" d="
						M362.055,201.563l-20.863,14.047c0.757,2.207,1.551,4.124,2.325,5.77l21.197-12.863
						C363.939,206.511,363.031,204.143,362.055,201.563z"/>
				</g>
			</g>
			<g>
				<path style="fill:#FFFFFF;stroke:#263238;stroke-linecap:round;stroke-linejoin:round;stroke-miterlimit:10;" d="
					M171.805,212.837l-20.704-14.018c-0.986,2.629-1.928,5.105-2.769,7.297l20.99,13.672
					C170.176,217.806,171.03,215.487,171.805,212.837z"/>
				<path style="fill:#FFFFFF;stroke:#263238;stroke-linecap:round;stroke-linejoin:round;stroke-miterlimit:10;" d="
					M174.524,197.793l-17.54-15.262c-0.549,1.601-1.127,3.251-1.72,4.919l18.699,15.193c0.039-0.28,0.087-0.542,0.123-0.827
					C174.262,200.438,174.401,199.104,174.524,197.793z"/>
			</g>
		</g>
		<g>
			<path style="fill:#FFFFFF;stroke:#263238;stroke-linecap:round;stroke-linejoin:round;stroke-miterlimit:10;" d="
				M162.515,143.807c0,0-4.743-1.581-5.42,0.678c-0.678,2.258,4.743,7.905,6.775,6.324
				C165.903,149.228,162.515,143.807,162.515,143.807z"/>
			<path style="fill:#FFFFFF;stroke:#263238;stroke-linecap:round;stroke-linejoin:round;stroke-miterlimit:10;" d="
				M157.762,147.184c0,0-2.07,1.583-1.461,3.167c0.609,1.583,4.994,4.141,6.09,3.288c1.096-0.853,0.122-2.558,0.122-2.558
				S157.641,148.524,157.762,147.184z"/>
			<path style="fill:#FFFFFF;stroke:#263238;stroke-linecap:round;stroke-linejoin:round;stroke-miterlimit:10;" d="
				M156.301,150.351c0,0-0.609,3.654,0.365,4.507c0.974,0.852,4.994,2.558,5.968,1.827c0.974-0.731-0.244-3.045-0.244-3.045
				S157.762,152.665,156.301,150.351z"/>
			<path style="fill:#FFFFFF;stroke:#263238;stroke-linecap:round;stroke-linejoin:round;stroke-miterlimit:10;" d="
				M156.666,154.858c0,0,0.365,2.192,1.705,3.288c1.34,1.096,4.019,2.07,4.141,0.974c0.122-1.096-1.218-2.192-1.218-2.192
				S157.519,155.345,156.666,154.858z"/>
		</g>
		<g>
			<path style="fill:#FFFFFF;stroke:#263238;stroke-linecap:round;stroke-linejoin:round;stroke-miterlimit:10;" d="
				M348.771,143.807c0,0,4.743-1.581,5.42,0.678c0.678,2.258-4.743,7.905-6.776,6.324
				C345.383,149.228,348.771,143.807,348.771,143.807z"/>
			<path style="fill:#FFFFFF;stroke:#263238;stroke-linecap:round;stroke-linejoin:round;stroke-miterlimit:10;" d="
				M353.523,147.184c0,0,2.07,1.583,1.462,3.167c-0.609,1.583-4.994,4.141-6.09,3.288s-0.122-2.558-0.122-2.558
				S353.645,148.524,353.523,147.184z"/>
			<path style="fill:#FFFFFF;stroke:#263238;stroke-linecap:round;stroke-linejoin:round;stroke-miterlimit:10;" d="
				M354.985,150.351c0,0,0.609,3.654-0.365,4.507c-0.974,0.852-4.994,2.558-5.968,1.827c-0.974-0.731,0.244-3.045,0.244-3.045
				S353.523,152.665,354.985,150.351z"/>
			<path style="fill:#FFFFFF;stroke:#263238;stroke-linecap:round;stroke-linejoin:round;stroke-miterlimit:10;" d="
				M354.619,154.858c0,0-0.365,2.192-1.705,3.288c-1.34,1.096-4.019,2.07-4.141,0.974c-0.122-1.096,1.218-2.192,1.218-2.192
				S353.767,155.345,354.619,154.858z"/>
		</g>
	</g>
</g>
<g id="Seats_1">
	<g>
		<path style="fill:#CFCFCF;stroke:#263238;stroke-linecap:round;stroke-linejoin:round;stroke-miterlimit:10;" d="M103.14,380.918
			H57.743c-16.027,0-29.02,12.992-29.02,29.02v31.016H132.16v-31.016C132.16,393.911,119.167,380.918,103.14,380.918z"/>
		<path style="fill:#CFCFCF;stroke:#263238;stroke-linecap:round;stroke-linejoin:round;stroke-miterlimit:10;" d="M215.255,380.918
			h-45.396c-16.027,0-29.02,12.992-29.02,29.02v31.016h103.436v-31.016C244.275,393.911,231.283,380.918,215.255,380.918z"/>
		<path style="fill:#CFCFCF;stroke:#263238;stroke-linecap:round;stroke-linejoin:round;stroke-miterlimit:10;" d="M327.371,380.918
			h-45.396c-16.027,0-29.02,12.992-29.02,29.02v31.016h103.436v-31.016C356.391,393.911,343.398,380.918,327.371,380.918z"/>
		<path style="fill:#CFCFCF;stroke:#263238;stroke-linecap:round;stroke-linejoin:round;stroke-miterlimit:10;" d="M439.487,380.918
			h-45.396c-16.027,0-29.02,12.992-29.02,29.02v31.016h103.436v-31.016C468.507,393.911,455.514,380.918,439.487,380.918z"/>
	</g>
</g>
<g id="Character_3">
	<g>
		<path style="fill:none;stroke:#263238;stroke-linecap:round;stroke-linejoin:round;stroke-miterlimit:10;" d="M289.192,321.013
			c0,0-0.494-7.199-0.16-9.538c0.334-2.339,8.522,0.668,10.695,1.504c2.172,0.836-0.334,4.512-2.674,6.183
			C294.714,320.833,291.023,321.695,289.192,321.013z"/>
		<g>
			<path style="fill:#FFFFFF;stroke:#263238;stroke-linecap:round;stroke-linejoin:round;stroke-miterlimit:10;" d="M304.093,291.58
				c0,0,0.823-16.458,2.461-26.879c1.638-10.421,2.829-19.8,2.829-19.8s4.168-3.275,4.764-4.913
				c0.596-1.638,0.893-4.317,1.191-4.913c0.298-0.596,4.317-5.955,5.359-7.89c1.042-1.935,1.489-4.764-0.447-3.871
				c-1.935,0.893-4.02,3.573-5.657,5.806c-1.638,2.233-1.786,1.191-2.829,0.893c-1.042-0.298-1.935-5.359-1.935-6.402
				s0.893-9.528,0.744-11.314c-0.149-1.786-2.68-1.489-3.275,1.191c-0.595,2.68-2.68,11.91-2.68,11.91s-1.042,2.531-1.638,3.275
				c-0.596,0.744-7.89,5.062-8.635,7.741c-0.744,2.68,1.786,13.547,1.786,13.547s-9.677,24.862-12.952,31.859
				s-2.68,23.224-0.893,27.69c1.786,4.466,12.208,5.657,13.25,4.913c1.042-0.744,6.402-11.017,7.295-14.59
				C303.725,296.262,304.093,291.58,304.093,291.58z"/>
			<path style="fill:#FFFFFF;stroke:#263238;stroke-linecap:round;stroke-linejoin:round;stroke-miterlimit:10;" d="
				M294.346,238.648c0,0-0.447-3.573,0.595-6.253c1.042-2.68,4.02-1.935,5.062-0.744c1.042,1.191,2.829,4.317,3.275,5.657
				c0.447,1.34,0,3.424-0.744,4.02c-0.744,0.596-2.977,0.596-4.02-0.595l-1.34-2.68"/>
			<path style="fill:#FFFFFF;stroke:#263238;stroke-linecap:round;stroke-linejoin:round;stroke-miterlimit:10;" d="
				M298.366,230.311c0,0,1.34-3.126,3.275-2.978c1.935,0.149,5.657,8.039,5.508,10.272c-0.149,2.233-3.126,2.68-3.126,2.68
				s0.149-1.042-0.744-2.977C302.385,235.372,299.11,229.864,298.366,230.311z"/>
			<path style="fill:#FFFFFF;stroke:#263238;stroke-linecap:round;stroke-linejoin:round;stroke-miterlimit:10;" d="
				M301.641,227.333c0,0,0.744-3.722,2.977-1.935c2.233,1.786,5.211,6.997,5.211,9.379c0,2.382-2.68,2.829-2.68,2.829
				s-0.298-2.829-1.489-5.211C304.469,230.013,301.641,227.333,301.641,227.333z"/>
			<path style="fill:none;stroke:#263238;stroke-linecap:round;stroke-linejoin:round;stroke-miterlimit:10;" d="M299.259,247.729
				c0,0,2.828,1.489,4.764,0.149c1.935-1.34,3.424-3.573,3.424-3.573"/>
			<path style="fill:#92E3A9;stroke:#263238;stroke-linecap:round;stroke-linejoin:round;stroke-miterlimit:10;" d="
				M298.217,268.422c-3.127-0.247-5.931-2.221-7.818-3.939c-2.706,6.765-5.674,14.038-7.218,17.337
				c-3.275,6.997-2.68,23.224-0.893,27.69c1.786,4.466,12.207,5.657,13.25,4.913c1.042-0.744,6.401-11.016,7.295-14.589
				c0.893-3.573,1.261-8.255,1.261-8.255s0.757-15.113,2.261-25.545C304.344,267.298,301.374,268.672,298.217,268.422z"/>
		</g>
		<g>
			<path style="fill:#FFFFFF;stroke:#263238;stroke-linecap:round;stroke-linejoin:round;stroke-miterlimit:10;" d="M420.774,291.58
				c0,0-0.823-16.458-2.461-26.879c-1.638-10.421-2.829-19.8-2.829-19.8s-4.168-3.275-4.764-4.913
				c-0.595-1.638-0.893-4.317-1.191-4.913c-0.298-0.596-4.317-5.955-5.359-7.89c-1.042-1.935-1.489-4.764,0.447-3.871
				c1.935,0.893,4.02,3.573,5.657,5.806c1.638,2.233,1.786,1.191,2.829,0.893c1.042-0.298,1.935-5.359,1.935-6.402
				s-0.893-9.528-0.744-11.314c0.149-1.786,2.68-1.489,3.275,1.191c0.595,2.68,2.68,11.91,2.68,11.91s1.042,2.531,1.638,3.275
				c0.595,0.744,7.89,5.062,8.635,7.741s-1.786,13.547-1.786,13.547s9.677,24.862,12.952,31.859s2.68,23.224,0.893,27.69
				s-12.208,5.657-13.25,4.913c-1.042-0.744-6.401-11.017-7.295-14.59C421.142,296.262,420.774,291.58,420.774,291.58z"/>
			<path style="fill:#FFFFFF;stroke:#263238;stroke-linecap:round;stroke-linejoin:round;stroke-miterlimit:10;" d="
				M430.521,238.648c0,0,0.447-3.573-0.596-6.253c-1.042-2.68-4.02-1.935-5.062-0.744c-1.042,1.191-2.829,4.317-3.275,5.657
				c-0.447,1.34,0,3.424,0.744,4.02c0.744,0.596,2.978,0.596,4.02-0.595l1.34-2.68"/>
			<path style="fill:#FFFFFF;stroke:#263238;stroke-linecap:round;stroke-linejoin:round;stroke-miterlimit:10;" d="
				M426.501,230.311c0,0-1.34-3.126-3.275-2.978c-1.935,0.149-5.657,8.039-5.508,10.272c0.149,2.233,3.126,2.68,3.126,2.68
				s-0.149-1.042,0.744-2.977C422.481,235.372,425.757,229.864,426.501,230.311z"/>
			<path style="fill:#FFFFFF;stroke:#263238;stroke-linecap:round;stroke-linejoin:round;stroke-miterlimit:10;" d="
				M423.226,227.333c0,0-0.744-3.722-2.977-1.935s-5.211,6.997-5.211,9.379c0,2.382,2.68,2.829,2.68,2.829s0.298-2.829,1.489-5.211
				C420.397,230.013,423.226,227.333,423.226,227.333z"/>
			<path style="fill:none;stroke:#263238;stroke-linecap:round;stroke-linejoin:round;stroke-miterlimit:10;" d="M425.608,247.729
				c0,0-2.829,1.489-4.764,0.149c-1.935-1.34-3.424-3.573-3.424-3.573"/>
			<path style="fill:#FFFFFF;stroke:#263238;stroke-linecap:round;stroke-linejoin:round;stroke-miterlimit:10;" d="
				M435.072,320.093c0,0,0.549-7.918,0.157-10.855c-0.391-2.936-6.656,2.741-7.439,4.307
				C427.007,315.112,433.348,319.79,435.072,320.093z"/>
			<path style="fill:#92E3A9;stroke:#263238;stroke-linecap:round;stroke-linejoin:round;stroke-miterlimit:10;" d="M426.65,268.422
				c3.127-0.247,5.931-2.221,7.818-3.939c2.706,6.765,5.674,14.038,7.218,17.337c3.275,6.997,2.68,23.224,0.893,27.69
				c-1.786,4.466-12.208,5.657-13.25,4.913c-1.042-0.744-6.401-11.016-7.295-14.589c-0.893-3.573-1.261-8.255-1.261-8.255
				s-0.757-15.113-2.261-25.545C420.523,267.298,423.492,268.672,426.65,268.422z"/>
		</g>
		<g>
			<path style="fill:#FFFFFF;stroke:#263238;stroke-linecap:round;stroke-linejoin:round;stroke-miterlimit:10;" d="M314.21,440.954
				c0,0-0.184-3.679,3.311-25.018s11.957-43.23,12.325-45.622c0.368-2.392-4.783-36.608-4.783-36.608s-2.943-1.84-12.325-5.151
				c-9.382-3.311-23.547-7.542-23.547-7.542s6.623-5.887,8.646-12.141c2.023-6.255,6.255-17.292,6.255-17.292l8.094,1.288
				c0,0,9.934-0.184,15.82,0.552c5.887,0.736,16.74,4.599,16.74,4.599s9.934,3.679,20.603,5.335
				c10.67,1.656,12.325-0.184,19.684-4.047c7.358-3.863,12.141-6.806,18.58-6.622c6.439,0.184,11.038-0.368,11.038-0.368
				l6.071-1.472c0,0,1.104,9.014,4.415,14.533c3.311,5.519,9.934,14.717,9.934,14.717s-26.674,8.646-28.697,10.118
				c-2.024,1.472-2.759,2.392-2.759,2.392s-4.231,32.745-4.231,36.056c0,3.311,9.198,32.193,11.773,40.839
				c2.575,8.646,5.887,24.467,6.622,31.089"/>
			<g>
				
					<line style="fill:none;stroke:#263238;stroke-linecap:round;stroke-linejoin:round;stroke-miterlimit:10;" x1="338.707" y1="425.201" x2="359.489" y2="437.619"/>
				
					<line style="fill:none;stroke:#263238;stroke-linecap:round;stroke-linejoin:round;stroke-miterlimit:10;" x1="395.222" y1="424.44" x2="372.667" y2="436.605"/>
			</g>
		</g>
		<path style="fill:#263238;stroke:#263238;stroke-linecap:round;stroke-linejoin:round;stroke-miterlimit:10;" d="M406.374,330.211
			c2.023-1.472,28.698-10.118,28.698-10.118s-6.623-9.198-9.934-14.717c-3.311-5.519-4.415-14.533-4.415-14.533l-6.071,1.472
			c0,0-4.599,0.552-11.038,0.368c-6.439-0.184-11.221,2.759-18.58,6.622c-7.358,3.863-9.014,5.703-19.684,4.047
			c-10.67-1.656-20.603-5.335-20.603-5.335s-10.854-3.863-16.74-4.599c-5.887-0.736-15.82-0.552-15.82-0.552l-8.094-1.288
			c0,0-4.231,11.038-6.255,17.292c-2.024,6.255-8.646,12.141-8.646,12.141s14.165,4.231,23.547,7.542
			c9.382,3.311,12.325,5.151,12.325,5.151s5.151,34.216,4.783,36.608c-0.35,2.277-8.036,22.234-11.788,42.56
			c7.733,3.671,25.172,10.133,51.707,9.869c21.355-0.212,34.904-5.025,42.552-9.055c-0.396-1.511-0.786-2.932-1.161-4.19
			c-2.575-8.646-11.773-37.528-11.773-40.839c0-3.311,4.231-36.056,4.231-36.056S404.35,331.683,406.374,330.211z"/>
		<g>
			<path style="fill:#92E3A9;stroke:#263238;stroke-linecap:round;stroke-linejoin:round;stroke-miterlimit:10;" d="
				M378.412,302.065c0,0,1.84,43.782,1.84,60.89c0,17.108,1.84,23.915,1.84,23.915s10.118,0.92,15.085-1.288
				c4.967-2.207,9.75-4.231,9.75-4.231s-4.231-15.269-9.382-35.872c-5.151-20.603-9.382-32.929-11.038-38.079
				c-1.656-5.151-2.943-7.726-2.943-7.726L378.412,302.065z"/>
			<g>
				<path style="fill:#FFFFFF;stroke:#263238;stroke-linecap:round;stroke-linejoin:round;stroke-miterlimit:10;" d="
					M380.132,353.309l18.528-3.389c-0.367-1.45-0.739-2.929-1.117-4.44c-0.142-0.568-0.281-1.106-0.421-1.662l-17.141,3.061
					C380.039,349.108,380.09,351.268,380.132,353.309z"/>
				<path style="fill:#FFFFFF;stroke:#263238;stroke-linecap:round;stroke-linejoin:round;stroke-miterlimit:10;" d="
					M401.366,360.483l-21.108,4.135c0.019,2.601,0.08,4.945,0.17,7.05l23.092-2.961C402.87,366.248,402.145,363.486,401.366,360.483
					z"/>
			</g>
		</g>
		<g>
			<path style="fill:#92E3A9;stroke:#263238;stroke-linecap:round;stroke-linejoin:round;stroke-miterlimit:10;" d="
				M341.804,295.995c0,0-3.127,26.306-6.071,43.414c-2.943,17.108-10.67,44.518-10.67,44.518s7.174,2.024,11.957,2.759
				c4.783,0.736,10.118,1.472,10.118,1.472s3.127-21.707,4.231-45.622c1.104-23.915-3.127-45.622-3.127-45.622L341.804,295.995z"/>
			<g>
				<path style="fill:#FFFFFF;stroke:#263238;stroke-linecap:round;stroke-linejoin:round;stroke-miterlimit:10;" d="
					M333.143,352.177l17.478,2.749c0.159-2.153,0.307-4.356,0.44-6.596l-16.568-2.407
					C334.075,347.958,333.62,350.057,333.143,352.177z"/>
				<path style="fill:#FFFFFF;stroke:#263238;stroke-linecap:round;stroke-linejoin:round;stroke-miterlimit:10;" d="
					M349.953,363.118l-18.785-2.533c-0.593,2.435-1.188,4.812-1.762,7.064l19.893,2.316
					C349.518,367.811,349.738,365.52,349.953,363.118z"/>
			</g>
		</g>
		<polygon style="fill:#9C9C9C;stroke:#263238;stroke-linecap:round;stroke-linejoin:round;stroke-miterlimit:10;" points="
			347.507,303.537 361.856,379.696 365.167,379.696 349.347,303.721 		"/>
		<polygon style="fill:#9C9C9C;stroke:#263238;stroke-linecap:round;stroke-linejoin:round;stroke-miterlimit:10;" points="
			365.167,379.696 378.412,302.065 381.723,301.146 368.11,380.248 		"/>
		<path style="fill:#FFFFFF;stroke:#263238;stroke-linecap:round;stroke-linejoin:round;stroke-miterlimit:10;" d="M347.139,284.405
			l0.368,19.132c0,0-0.368,4.231,8.462,8.278c8.83,4.047,13.981-0.368,16.188-2.392c2.207-2.024,6.255-7.358,6.255-7.358
			l-2.759-14.349c0,0-12.509,3.127-18.212,2.576C351.738,289.74,347.139,284.405,347.139,284.405z"/>
		<path style="fill:#92E3A9;stroke:#263238;stroke-linecap:round;stroke-linejoin:round;stroke-miterlimit:10;" d="M371.606,246.326
			c0,0-5.703-8.094-12.877-8.646c-7.174-0.552-24.283,18.212-25.754,26.858c-1.472,8.646,2.943,13.981,4.047,16.372
			c1.104,2.391-2.208,9.382-3.863,17.108c-1.656,7.726,2.024,11.589,5.519,16.188c3.495,4.599,3.127,9.934,0.368,8.462
			c-2.759-1.472-0.92-5.335-2.943-3.679c-2.024,1.656-6.806,7.726,3.679,12.509c10.486,4.783,13.797-8.462,14.717-12.509
			c0.92-4.047,0.552-10.302-2.943-15.637c-3.495-5.335-4.783-13.429-4.783-16.372s3.863-23.363,11.773-27.778
			c7.91-4.415,13.797-1.472,16.372,3.127c2.575,4.599,5.151,11.038,6.622,10.854c1.472-0.184,2.207,1.472,2.759,0.368
			c0.552-1.104,4.047-8.462,0-16.74C380.252,248.533,371.606,246.326,371.606,246.326z"/>
		<path style="fill:#FFFFFF;stroke:#263238;stroke-linecap:round;stroke-linejoin:round;stroke-miterlimit:10;" d="M369.582,245.774
			c0,0-13.245,4.231-16.74,8.462c-3.495,4.231-6.807,10.486-7.91,13.429c-1.104,2.943-2.391,6.255-2.391,6.255
			s-3.679-3.495-4.967,1.84c-1.288,5.335,2.208,8.462,4.231,9.198c2.023,0.736,2.023,0.736,2.023,0.736s2.207,3.495,4.415,5.335
			c2.207,1.84,7.91,7.91,16.372,7.542c8.462-0.368,13.245-7.91,14.533-10.486c1.288-2.576,1.288-2.576,1.288-2.576
			s5.151-4.599,5.519-8.646c0.368-4.047-2.575-5.887-3.679-6.071c-1.104-0.184-2.207-0.368-2.207-0.368s-1.104-11.038-5.151-17.66
			C370.87,246.142,369.582,245.774,369.582,245.774z"/>
		<path style="fill:#FFFFFF;stroke:#263238;stroke-linecap:round;stroke-linejoin:round;stroke-miterlimit:10;" d="M359.28,270.057
			c0,0,2.391,1.656,4.047,1.472c1.656-0.184,3.311-1.656,3.311-1.656"/>
		<path style="fill:#263238;" d="M357.625,275.023c0,0,5.703,1.84,11.221-0.368c0,0-0.92,7.358-4.047,8.83
			C361.672,284.957,359.832,282.382,357.625,275.023z"/>
		<g>
			<path style="fill:#263238;stroke:#263238;stroke-linecap:round;stroke-linejoin:round;stroke-miterlimit:10;" d="
				M360.384,261.227c0,0-4.599-1.104-9.566-0.92c-4.967,0.184-9.934,1.472-9.934,2.575c0,1.104,1.288,2.023,1.656,3.863
				c0.368,1.84-0.184,5.335,6.439,5.887c6.622,0.552,10.302-2.391,11.038-6.071C360.752,262.882,360.384,261.227,360.384,261.227z"
				/>
			<path style="fill:#263238;stroke:#263238;stroke-linecap:round;stroke-linejoin:round;stroke-miterlimit:10;" d="
				M364.983,261.227c0,0,4.599-1.104,9.566-0.92c4.967,0.184,9.934,1.472,9.934,2.575c0,1.104-1.288,2.023-1.656,3.863
				c-0.368,1.84,0.184,5.335-6.439,5.887c-6.623,0.552-10.302-2.391-11.038-6.071C364.615,262.882,364.983,261.227,364.983,261.227z
				"/>
			<path style="fill:#263238;stroke:#263238;stroke-linecap:round;stroke-linejoin:round;stroke-miterlimit:10;" d="
				M360.384,261.227c0,0,3.127-0.92,4.599,0v2.023c0,0-1.472-1.104-4.231,0L360.384,261.227z"/>
		</g>
		
			<rect x="355.609" y="378.297" transform="matrix(0.9997 0.0229 -0.0229 0.9997 9.0924 -8.2321)" style="fill:#FFFFFF;stroke:#263238;stroke-linecap:round;stroke-linejoin:round;stroke-miterlimit:10;" width="18.288" height="30.88"/>
	</g>
</g>
<g id="Character_1">
	<g>
		<path style="fill:none;stroke:#263238;stroke-linecap:round;stroke-linejoin:round;stroke-miterlimit:10;" d="M167.135,246.154
			c0,0-0.621,2.069,0.414,2.483c1.035,0.414,2.897,0.828,3.932-0.207c1.035-1.035,0.414-2.276,0.414-2.276H167.135z"/>
		<path style="fill:none;stroke:#263238;stroke-linecap:round;stroke-linejoin:round;stroke-miterlimit:10;" d="M171.895,247.154
			c0,0,1.242,1.863,3.518,2.069c2.276,0.207,7.243-2.483,7.243-2.483s-8.071-3.932-8.692-3.932S172.309,244.878,171.895,247.154z"/>
		<path style="fill:#263238;stroke:#263238;stroke-linecap:round;stroke-linejoin:round;stroke-miterlimit:10;" d="M107.57,440.954
			l2.033-37.33c0,0,14.23,9.795,37.515,6.283c23.285-3.511,32.156-9.425,32.156-9.425l6.838,39.733"/>
		<path style="fill:#FFFFFF;stroke:#263238;stroke-linecap:round;stroke-linejoin:round;stroke-miterlimit:10;" d="M125.126,288.957
			c0,0-27.109,11.589-31.248,16.141c-4.139,4.553-11.382,36.836-11.382,36.836s-5.381,17.59-4.967,21.522
			c0.414,3.932,9.519,6.208,16.969,3.725c7.45-2.483,11.589-6.208,11.589-6.208l3.104,20.487l-0.207,25.454
			c0,0,14.693,9.933,36.008,7.45c21.315-2.483,32.904-10.554,33.938-11.382c1.035-0.828,1.035-0.828,1.035-0.828
			s-3.932-36.215-3.932-38.698s6.415-48.424,6.829-49.045c0.414-0.621,17.383,2.276,27.73-0.828
			c10.347-3.104,12.21-6.829,11.382-12.417c-0.828-5.587-12.417-28.765-18.418-36.836c-6.001-8.071-15.314-22.971-17.59-25.247
			c-2.276-2.276-15.314-4.76-17.383-5.587c-2.069-0.828-3.311,1.242-3.518,2.069c-0.207,0.828-0.621,7.243-1.242,8.692
			c-0.621,1.449,3.725,2.483,5.794,2.897c2.069,0.414,3.311-1.862,3.311-1.862s3.104,1.449,5.174,1.449c2.069,0,4.553,0,4.553,0
			s7.657,16.969,8.898,23.178c1.242,6.208,3.518,20.487,3.518,20.487l-16.348-6.829c0,0-4.346-3.932-10.761-3.311
			c-6.415,0.621-14.279,4.967-15.314,4.967s-7.45,0-7.45,0L125.126,288.957z"/>
		<path style="fill:#92E3A9;stroke:#263238;stroke-linecap:round;stroke-linejoin:round;stroke-miterlimit:10;" d="M190.904,288.664
			l-12.18-5.088c0,0-4.346-3.932-10.761-3.311c-6.415,0.621-14.279,4.967-15.314,4.967c-1.035,0-7.45,0-7.45,0l-20.074,3.725
			c0,0-27.109,11.589-31.248,16.141c-4.139,4.553-11.382,36.836-11.382,36.836s-0.187,0.612-0.489,1.632l20.976,5.198l3.104,12.21
			l3.104,20.487l-0.207,25.454c0,0,14.693,9.933,36.008,7.45c21.315-2.483,32.904-10.554,33.938-11.382
			c1.035-0.828,1.035-0.828,1.035-0.828s-3.932-36.215-3.932-38.698s6.415-48.425,6.829-49.045c0.139-0.208,2.135-0.021,5.111,0.202
			c-1.598-2.261-3.042-5.473-3.042-9.721C184.932,297.706,188.938,291.351,190.904,288.664z"/>
		<g>
			<path style="fill:#9C9C9C;stroke:#263238;stroke-linecap:round;stroke-linejoin:round;stroke-miterlimit:10;" d="
				M122.643,298.269l0.157-8.302c-0.983,0.431-2.232,0.983-3.661,1.625c0.082,7.195,0.552,24.398,3.09,39.788
				c3.311,20.073,10.347,39.319,10.347,39.319l2.897-0.414c0,0-3.725-16.142-7.657-29.179
				C123.884,328.069,122.643,298.269,122.643,298.269z"/>
			<path style="fill:#9C9C9C;stroke:#263238;stroke-linecap:round;stroke-linejoin:round;stroke-miterlimit:10;" d="
				M147.889,332.415c2.897-16.142,4.553-36.008,4.76-40.768c0.113-2.611,0.165-4.905,0.188-6.449
				c-0.069,0.016-0.143,0.034-0.188,0.034c-0.42,0-1.73,0-3.135,0c0.325,2.763,0.231,9.201-1.832,24.212
				c-3.725,27.109-12.21,60.841-12.21,60.841l3.518,1.035C138.991,371.32,144.992,348.556,147.889,332.415z"/>
		</g>
		<polyline style="fill:none;stroke:#263238;stroke-linecap:round;stroke-linejoin:round;stroke-miterlimit:10;" points="
			172.93,245.292 170.032,242.188 168.584,244.257 		"/>
		<path style="fill:none;stroke:#263238;stroke-linecap:round;stroke-linejoin:round;stroke-miterlimit:10;" d="M195.072,290.405
			c0,0,0.621,8.071,2.276,10.347"/>
		
			<line style="fill:none;stroke:#263238;stroke-linecap:round;stroke-linejoin:round;stroke-miterlimit:10;" x1="102.776" y1="347.315" x2="99.051" y2="327.448"/>
		
			<line style="fill:none;stroke:#263238;stroke-linecap:round;stroke-linejoin:round;stroke-miterlimit:10;" x1="182.863" y1="314.411" x2="173.964" y2="313.997"/>
		
			<rect x="126.644" y="368.787" transform="matrix(0.9933 0.1152 -0.1152 0.9933 45.0545 -13.0261)" style="fill:#FFFFFF;stroke:#263238;stroke-linecap:round;stroke-linejoin:round;stroke-miterlimit:10;" width="17.151" height="28.96"/>
		<g>
			<path style="fill:#FFFFFF;stroke:#263238;stroke-linecap:round;stroke-linejoin:round;stroke-miterlimit:10;" d="
				M106.087,353.316c0,0-8.485,0.621-9.105,0.621c-0.621,0-9.933-0.621-16.555,1.242s-7.243,12.003-7.243,14.693
				c0,2.69,3.311,9.105,10.347,9.726c7.036,0.621,19.66-13.658,20.073-14.279c0.414-0.621,6.208-0.414,7.864-1.035
				c1.656-0.621,4.76-2.897,4.76-2.897s0.828,1.862,2.276,1.655c1.449-0.207,12.21-11.175,12.83-13.244
				c0.621-2.069,1.242-2.69-0.414-3.725c-1.656-1.035-7.45-6.001-9.726-5.38C118.918,341.313,106.087,353.316,106.087,353.316z"/>
			<path style="fill:#FFFFFF;stroke:#263238;stroke-linecap:round;stroke-linejoin:round;stroke-miterlimit:10;" d="
				M131.334,349.798c0,0,3.104-0.414,2.897,1.035c-0.207,1.449-2.483,5.794-4.76,6.415c-2.276,0.621-2.897-1.655-2.897-1.655
				L131.334,349.798z"/>
			<path style="fill:none;stroke:#263238;stroke-linecap:round;stroke-linejoin:round;stroke-miterlimit:10;" d="M112.507,349.667
				c0,0,1.018-0.306,1.629,0.916c0.611,1.222,1.527,2.138,1.527,2.138l7.026,6.415"/>
			<path style="fill:none;stroke:#263238;stroke-linecap:round;stroke-linejoin:round;stroke-miterlimit:10;" d="M116.478,345.899
				c0,0,1.018,0,1.12,0.815c0.102,0.814,0.204,1.324,0.204,1.324l8.773,7.555"/>
			<path style="fill:none;stroke:#263238;stroke-linecap:round;stroke-linejoin:round;stroke-miterlimit:10;" d="M120.143,342.641
				c0,0,1.425,0.611,1.629,1.426c0.204,0.815,0.509,1.324,0.509,1.324s7.331,5.702,7.331,6.007"/>
			<path style="fill:none;stroke:#263238;stroke-linecap:round;stroke-linejoin:round;stroke-miterlimit:10;" d="M116.227,361.387
				c0,0,0.658-2.047,1.065-2.149c0.407-0.102,0.815,0.815,0.815,0.815"/>
		</g>
		<path style="fill:#FFFFFF;stroke:#263238;stroke-linecap:round;stroke-linejoin:round;stroke-miterlimit:10;" d="M122.603,279.12
			c0,0-0.995,12.734,0.436,22.797c0.35,2.461,7.841,6.824,15.101,5.663c7.26-1.162,10.6-8.276,11.18-11.18
			c0.581-2.904-2.468-24.394-2.468-24.394s-1.162,7.26-11.18,9.293C125.653,283.331,122.603,279.12,122.603,279.12z"/>
		<g>
			<path style="fill:#FFFFFF;stroke:#263238;stroke-linecap:round;stroke-linejoin:round;stroke-miterlimit:10;" d="
				M116.289,258.176c0,0-2.786-3.051-4.377-1.194c-1.592,1.857-1.061,7.296,1.99,9.551c3.051,2.255,4.112,1.194,4.112,1.194
				l-0.398-8.755L116.289,258.176z"/>
			<path style="fill:#263238;stroke:#263238;stroke-linecap:round;stroke-linejoin:round;stroke-miterlimit:10;" d="
				M114.564,238.676c0,0-4.51,5.969-3.184,9.551c1.326,3.582,4.51,8.357,4.643,8.888c0.133,0.531,1.326,3.184,1.326,3.184
				l-0.531-19.765C116.819,240.533,116.554,237.084,114.564,238.676z"/>
			<path style="fill:#FFFFFF;stroke:#263238;stroke-linecap:round;stroke-linejoin:round;stroke-miterlimit:10;" d="
				M149.585,258.176c0,0,2.786-3.051,4.378-1.194c1.592,1.857,1.061,7.296-1.99,9.551c-3.051,2.255-4.112,1.194-4.112,1.194
				l0.398-8.755L149.585,258.176z"/>
			<path style="fill:#263238;stroke:#263238;stroke-linecap:round;stroke-linejoin:round;stroke-miterlimit:10;" d="
				M144.989,234.254c0,0,4.464,0.31,6.055,3.759c1.592,3.449-1.99,17.245-2.122,18.704c-0.133,1.459-5.969-22.153-5.969-22.153
				S144.239,233.944,144.989,234.254z"/>
			<path style="fill:#263238;stroke:#263238;stroke-linecap:round;stroke-linejoin:round;stroke-miterlimit:10;" d="
				M144.989,234.254c0,0-17.028,4.644-21.672,6.579c-4.644,1.935-11.997,1.161-13.158-5.031
				c-1.161-6.192,14.706-15.093,23.994-14.706C143.441,221.483,148.278,229.997,144.989,234.254z"/>
			<path style="fill:#FFFFFF;stroke:#263238;stroke-linecap:round;stroke-linejoin:round;stroke-miterlimit:10;" d="
				M144.989,234.254c0,0,2.902,6.772,3.483,11.803c0.581,5.031,0.193,18.769,0.193,23.607s-1.008,11.04-5.846,14.91
				c-4.837,3.87-10.836,3.87-15.48,1.548c-4.644-2.322-8.667-11.04-9.247-15.297c-0.58-4.257-2.322-30.379-2.322-30.379
				s4.063-4.257,14.706-6.772C141.119,231.158,144.989,234.254,144.989,234.254z"/>
			<path style="fill:#263238;stroke:#263238;stroke-linecap:round;stroke-linejoin:round;stroke-miterlimit:10;" d="
				M148.752,251.482c-0.173-0.006-0.28-0.007-0.28-0.007l-2.128,14.125c0,0-8.127-5.224-13.738-4.45
				c-5.611,0.774-11.029,7.353-12.384,6.966c-1.354-0.387-3.289-15.48-3.289-15.48l-0.296,0.31
				c0.525,7.354,1.152,15.64,1.457,17.879c0.58,4.257,4.603,12.975,9.247,15.297c4.644,2.322,10.642,2.322,15.48-1.548
				c4.837-3.87,5.846-10.072,5.846-14.91C148.665,266.091,148.875,257.671,148.752,251.482z"/>
			<path style="fill:#FFFFFF;stroke:#263238;stroke-linecap:round;stroke-linejoin:round;stroke-miterlimit:10;" d="
				M130.476,257.667c0,0-1.742,1.935-0.387,2.902c1.355,0.967,4.063,3.677,5.611,2.322c1.548-1.354,3.096-2.709,2.902-4.063
				c-0.193-1.354-0.193-1.354-0.193-1.354"/>
			<path style="fill:#FFFFFF;stroke:#263238;stroke-linecap:round;stroke-linejoin:round;stroke-miterlimit:10;" d="M127.38,267.729
				c0,0,6.772,3.29,13.932-0.387c0,0-1.038,8.677-6.772,9.675C130.089,277.791,127.38,267.729,127.38,267.729z"/>
			<path style="fill:none;stroke:#263238;stroke-linecap:round;stroke-linejoin:round;stroke-miterlimit:10;" d="M137.513,250.084
				c0,0,4.112-3.051,7.959-2.122"/>
			<path style="fill:none;stroke:#263238;stroke-linecap:round;stroke-linejoin:round;stroke-miterlimit:10;" d="M129.554,250.482
				c0,0-3.316-2.918-8.357-1.459"/>
			<path style="fill:#263238;" d="M128.095,252.936c0,1.135-0.594,2.056-1.326,2.056c-0.733,0-1.326-0.921-1.326-2.056
				c0-1.136,0.594-2.056,1.326-2.056C127.501,250.88,128.095,251.8,128.095,252.936z"/>
			<path style="fill:#263238;" d="M141.758,252.472c0,1.135-0.594,2.056-1.326,2.056c-0.733,0-1.327-0.921-1.327-2.056
				c0-1.136,0.594-2.056,1.327-2.056C141.164,250.415,141.758,251.336,141.758,252.472z"/>
		</g>
	</g>
</g>
<g id="Text">
	<g>
		<polygon style="fill:#263238;" points="198.064,148.355 199.487,153.163 204.471,152.614 200.338,155.453 202.4,160.023 
			198.423,156.97 194.714,160.344 196.388,155.617 192.034,153.132 197.046,153.264 		"/>
		<polygon style="fill:#263238;" points="312.951,148.355 314.374,153.163 319.358,152.614 315.225,155.453 317.287,160.023 
			313.31,156.97 309.6,160.344 311.275,155.617 306.92,153.132 311.933,153.264 		"/>
		<g>
			<path style="fill:#263238;" d="M211.605,161.927c-1.065,0-1.891-0.223-2.479-0.669c-0.588-0.446-0.997-1.046-1.226-1.801
				c-0.229-0.755-0.344-1.597-0.344-2.525v-5.311c0-1.015,0.115-1.9,0.344-2.656c0.229-0.755,0.637-1.34,1.226-1.755
				c0.588-0.415,1.414-0.622,2.479-0.622c0.941,0,1.687,0.173,2.238,0.52c0.551,0.347,0.947,0.842,1.188,1.486
				c0.242,0.644,0.362,1.418,0.362,2.321v1.188h-1.987v-1.058c0-0.557-0.028-1.049-0.083-1.476
				c-0.056-0.427-0.208-0.758-0.455-0.994c-0.247-0.235-0.663-0.353-1.244-0.353c-0.594,0-1.028,0.127-1.3,0.38
				c-0.272,0.254-0.449,0.613-0.529,1.077c-0.08,0.464-0.121,1.006-0.121,1.625v5.961c0,0.755,0.062,1.353,0.186,1.792
				c0.124,0.439,0.328,0.752,0.613,0.938s0.669,0.279,1.152,0.279c0.569,0,0.978-0.127,1.226-0.381
				c0.248-0.254,0.402-0.604,0.464-1.049c0.062-0.446,0.093-0.966,0.093-1.56v-1.114h1.987v1.114c0,0.916-0.111,1.724-0.335,2.423
				c-0.223,0.699-0.606,1.244-1.151,1.634C213.363,161.733,212.595,161.927,211.605,161.927z"/>
			<path style="fill:#263238;" d="M219.256,161.76v-15.042h2.098v6.499h3.863v-6.499h2.098v15.042h-2.098v-7.038h-3.863v7.038
				H219.256z"/>
			<path style="fill:#263238;" d="M230.713,161.76l3.194-15.042h2.024l3.213,15.042h-1.987l-0.687-3.788h-3.064l-0.724,3.788
				H230.713z M233.684,156.468h2.507l-1.263-6.778L233.684,156.468z"/>
			<path style="fill:#263238;" d="M242.486,161.76l0.278-15.042h2.061l2.656,12.2l2.674-12.2h2.042l0.279,15.042h-1.689
				l-0.168-10.919l-2.544,10.919h-1.188l-2.526-10.919l-0.167,10.919H242.486z"/>
			<path style="fill:#263238;" d="M256.635,161.76v-15.042h3.732c0.904,0,1.625,0.164,2.164,0.492
				c0.538,0.328,0.931,0.802,1.179,1.421c0.248,0.619,0.371,1.368,0.371,2.247c0,0.792-0.139,1.479-0.418,2.061
				c-0.279,0.582-0.691,1.031-1.235,1.346c-0.545,0.316-1.225,0.473-2.042,0.473h-1.653v7.001H256.635z M258.734,153.256h0.966
				c0.606,0,1.083-0.068,1.43-0.204c0.346-0.136,0.594-0.374,0.743-0.715c0.148-0.34,0.222-0.82,0.222-1.439
				c0-0.718-0.052-1.269-0.158-1.653c-0.105-0.384-0.325-0.65-0.659-0.799c-0.334-0.148-0.855-0.223-1.56-0.223h-0.984V153.256z"/>
			<path style="fill:#263238;" d="M267.518,161.76v-15.042h2.061v15.042H267.518z"/>
			<path style="fill:#263238;" d="M277.712,161.927c-1.016,0-1.826-0.198-2.433-0.594c-0.606-0.396-1.04-0.963-1.299-1.699
				c-0.26-0.737-0.39-1.6-0.39-2.591v-5.701c0-0.99,0.133-1.841,0.4-2.553c0.266-0.712,0.699-1.256,1.3-1.634
				c0.6-0.378,1.408-0.566,2.423-0.566c1.015,0,1.82,0.192,2.413,0.575c0.594,0.384,1.025,0.928,1.291,1.634
				c0.266,0.706,0.4,1.554,0.4,2.544v5.719c0,0.978-0.133,1.833-0.4,2.563c-0.266,0.731-0.696,1.297-1.291,1.699
				C279.531,161.726,278.727,161.927,277.712,161.927z M277.712,160.275c0.557,0,0.977-0.114,1.263-0.344
				c0.284-0.229,0.476-0.551,0.575-0.965c0.099-0.415,0.148-0.901,0.148-1.458v-6.592c0-0.557-0.05-1.037-0.148-1.439
				c-0.099-0.402-0.291-0.712-0.575-0.928c-0.285-0.216-0.706-0.325-1.263-0.325s-0.982,0.109-1.273,0.325
				c-0.291,0.217-0.486,0.526-0.585,0.928c-0.099,0.402-0.148,0.882-0.148,1.439v6.592c0,0.557,0.049,1.043,0.148,1.458
				c0.099,0.415,0.294,0.737,0.585,0.965C276.73,160.16,277.155,160.275,277.712,160.275z"/>
			<path style="fill:#263238;" d="M285.734,161.76v-15.042h1.43l4.271,9.99v-9.99h1.745v15.042h-1.337l-4.327-10.269v10.269H285.734
				z"/>
			<path style="fill:#263238;" d="M300.942,161.927c-0.866,0-1.588-0.186-2.163-0.557c-0.576-0.371-1.012-0.885-1.309-1.541
				c-0.298-0.656-0.471-1.417-0.52-2.284l1.856-0.502c0.037,0.533,0.121,1.047,0.251,1.542c0.13,0.495,0.343,0.9,0.641,1.216
				c0.297,0.316,0.711,0.473,1.244,0.473c0.545,0,0.957-0.151,1.235-0.455c0.279-0.303,0.418-0.74,0.418-1.31
				c0-0.681-0.155-1.228-0.464-1.643c-0.31-0.414-0.7-0.832-1.17-1.253l-2.526-2.229c-0.495-0.433-0.861-0.907-1.095-1.421
				c-0.235-0.514-0.353-1.148-0.353-1.903c0-1.102,0.316-1.956,0.948-2.563c0.631-0.606,1.491-0.91,2.581-0.91
				c0.594,0,1.118,0.077,1.569,0.232c0.452,0.155,0.829,0.393,1.133,0.715c0.303,0.322,0.545,0.727,0.725,1.216
				c0.179,0.49,0.3,1.062,0.362,1.718l-1.783,0.483c-0.037-0.495-0.111-0.95-0.223-1.365c-0.111-0.415-0.306-0.749-0.585-1.003
				c-0.279-0.253-0.678-0.381-1.198-0.381s-0.925,0.139-1.216,0.418c-0.291,0.279-0.436,0.69-0.436,1.235
				c0,0.458,0.077,0.836,0.232,1.133c0.154,0.297,0.405,0.6,0.752,0.91l2.544,2.228c0.57,0.495,1.071,1.087,1.505,1.773
				c0.433,0.687,0.65,1.501,0.65,2.442c0,0.743-0.155,1.384-0.464,1.922c-0.31,0.538-0.734,0.95-1.273,1.235
				C302.27,161.785,301.647,161.927,300.942,161.927z"/>
		</g>
	</g>
</g>
<g id="Line">
	
		<line style="fill:none;stroke:#263238;stroke-linecap:round;stroke-linejoin:round;stroke-miterlimit:10;" x1="16.427" y1="440.954" x2="480.08" y2="440.954"/>
</g>
<g id="Confetti">
	<polygon style="fill:#FFFFFF;stroke:#263238;stroke-linecap:round;stroke-linejoin:round;stroke-miterlimit:10;" points="
		251.19,99.839 246.418,104.611 251.19,108.02 	"/>
	<polygon style="fill:#FFFFFF;stroke:#263238;stroke-linecap:round;stroke-linejoin:round;stroke-miterlimit:10;" points="
		292.681,96.196 287.896,91.437 284.5,96.219 	"/>
	<polygon style="fill:#FFFFFF;stroke:#263238;stroke-linecap:round;stroke-linejoin:round;stroke-miterlimit:10;" points="
		280.18,126.606 275.394,121.847 271.999,126.628 	"/>
	<polygon style="fill:#FFFFFF;stroke:#263238;stroke-linecap:round;stroke-linejoin:round;stroke-miterlimit:10;" points="
		171.694,77.8 166.921,82.572 171.694,85.981 	"/>
	<polygon style="fill:#FFFFFF;stroke:#263238;stroke-linecap:round;stroke-linejoin:round;stroke-miterlimit:10;" points="
		213.184,74.157 208.399,69.398 205.003,74.179 	"/>
	<polygon style="fill:#FFFFFF;stroke:#263238;stroke-linecap:round;stroke-linejoin:round;stroke-miterlimit:10;" points="
		200.683,104.566 195.898,99.807 192.502,104.589 	"/>
	<polygon style="fill:#FFFFFF;stroke:#263238;stroke-linecap:round;stroke-linejoin:round;stroke-miterlimit:10;" points="
		378.059,83.292 373.287,88.064 378.059,91.473 	"/>
	<polygon style="fill:#FFFFFF;stroke:#263238;stroke-linecap:round;stroke-linejoin:round;stroke-miterlimit:10;" points="
		419.55,79.649 414.765,74.89 411.369,79.672 	"/>
	<polygon style="fill:#FFFFFF;stroke:#263238;stroke-linecap:round;stroke-linejoin:round;stroke-miterlimit:10;" points="
		407.049,110.059 402.264,105.3 398.868,110.081 	"/>
	<polygon style="fill:#FFFFFF;stroke:#263238;stroke-linecap:round;stroke-linejoin:round;stroke-miterlimit:10;" points="
		272.276,377.238 267.504,382.011 272.276,385.419 	"/>
	<polygon style="fill:#FFFFFF;stroke:#263238;stroke-linecap:round;stroke-linejoin:round;stroke-miterlimit:10;" points="
		313.767,373.596 308.982,368.837 305.586,373.618 	"/>
	<polygon style="fill:#FFFFFF;stroke:#263238;stroke-linecap:round;stroke-linejoin:round;stroke-miterlimit:10;" points="
		301.266,404.005 296.48,399.246 293.085,404.028 	"/>
	<polygon style="fill:#FFFFFF;stroke:#263238;stroke-linecap:round;stroke-linejoin:round;stroke-miterlimit:10;" points="
		431.839,304.609 427.067,309.381 431.839,312.79 	"/>
	<polygon style="fill:#FFFFFF;stroke:#263238;stroke-linecap:round;stroke-linejoin:round;stroke-miterlimit:10;" points="
		473.33,300.966 468.545,296.207 465.149,300.988 	"/>
	<polygon style="fill:#FFFFFF;stroke:#263238;stroke-linecap:round;stroke-linejoin:round;stroke-miterlimit:10;" points="
		460.829,331.375 456.044,326.616 452.648,331.398 	"/>
	<polygon style="fill:#FFFFFF;stroke:#263238;stroke-linecap:round;stroke-linejoin:round;stroke-miterlimit:10;" points="
		298.563,61.253 293.791,66.025 298.563,69.434 	"/>
	<polygon style="fill:#FFFFFF;stroke:#263238;stroke-linecap:round;stroke-linejoin:round;stroke-miterlimit:10;" points="
		340.054,57.61 335.268,52.851 331.873,57.632 	"/>
	<polygon style="fill:#FFFFFF;stroke:#263238;stroke-linecap:round;stroke-linejoin:round;stroke-miterlimit:10;" points="
		327.552,88.02 322.767,83.26 319.371,88.042 	"/>
	<polygon style="fill:#FFFFFF;stroke:#263238;stroke-linecap:round;stroke-linejoin:round;stroke-miterlimit:10;" points="
		276.263,201.161 271.491,205.934 276.263,209.342 	"/>
	<polygon style="fill:#FFFFFF;stroke:#263238;stroke-linecap:round;stroke-linejoin:round;stroke-miterlimit:10;" points="
		317.754,197.519 312.969,192.76 309.573,197.541 	"/>
	<polygon style="fill:#FFFFFF;stroke:#263238;stroke-linecap:round;stroke-linejoin:round;stroke-miterlimit:10;" points="
		305.253,227.928 300.467,223.169 297.072,227.951 	"/>
	<polygon style="fill:#FFFFFF;stroke:#263238;stroke-linecap:round;stroke-linejoin:round;stroke-miterlimit:10;" points="
		196.767,179.122 191.994,183.894 196.767,187.303 	"/>
	<polygon style="fill:#FFFFFF;stroke:#263238;stroke-linecap:round;stroke-linejoin:round;stroke-miterlimit:10;" points="
		238.258,175.479 233.472,170.72 230.077,175.502 	"/>
	<polygon style="fill:#FFFFFF;stroke:#263238;stroke-linecap:round;stroke-linejoin:round;stroke-miterlimit:10;" points="
		225.756,205.889 220.971,201.13 217.575,205.911 	"/>
	<polygon style="fill:#FFFFFF;stroke:#263238;stroke-linecap:round;stroke-linejoin:round;stroke-miterlimit:10;" points="
		145.893,203.542 141.12,208.315 145.893,211.724 	"/>
	<polygon style="fill:#FFFFFF;stroke:#263238;stroke-linecap:round;stroke-linejoin:round;stroke-miterlimit:10;" points="
		187.383,199.9 182.598,195.141 179.202,199.922 	"/>
	<polygon style="fill:#FFFFFF;stroke:#263238;stroke-linecap:round;stroke-linejoin:round;stroke-miterlimit:10;" points="
		174.882,230.309 170.097,225.55 166.701,230.332 	"/>
	<polygon style="fill:#FFFFFF;stroke:#263238;stroke-linecap:round;stroke-linejoin:round;stroke-miterlimit:10;" points="
		66.396,181.503 61.624,186.275 66.396,189.684 	"/>
	<polygon style="fill:#FFFFFF;stroke:#263238;stroke-linecap:round;stroke-linejoin:round;stroke-miterlimit:10;" points="
		107.887,177.861 103.102,173.101 99.706,177.883 	"/>
	<polygon style="fill:#FFFFFF;stroke:#263238;stroke-linecap:round;stroke-linejoin:round;stroke-miterlimit:10;" points="
		95.386,208.27 90.6,203.511 87.205,208.292 	"/>
	<polygon style="fill:#FFFFFF;stroke:#263238;stroke-linecap:round;stroke-linejoin:round;stroke-miterlimit:10;" points="
		129.82,280.931 125.047,285.704 129.82,289.112 	"/>
	<polygon style="fill:#FFFFFF;stroke:#263238;stroke-linecap:round;stroke-linejoin:round;stroke-miterlimit:10;" points="
		50.323,258.892 45.551,263.664 50.323,267.073 	"/>
	<polygon style="fill:#FFFFFF;stroke:#263238;stroke-linecap:round;stroke-linejoin:round;stroke-miterlimit:10;" points="
		91.814,255.249 87.029,250.49 83.633,255.272 	"/>
	<polygon style="fill:#FFFFFF;stroke:#263238;stroke-linecap:round;stroke-linejoin:round;stroke-miterlimit:10;" points="
		79.313,285.659 74.527,280.9 71.132,285.681 	"/>
	<polygon style="fill:#FFFFFF;stroke:#263238;stroke-linecap:round;stroke-linejoin:round;stroke-miterlimit:10;" points="
		255.334,340.988 250.562,345.76 255.334,349.169 	"/>
	<polygon style="fill:#FFFFFF;stroke:#263238;stroke-linecap:round;stroke-linejoin:round;stroke-miterlimit:10;" points="
		175.838,318.948 171.066,323.72 175.838,327.129 	"/>
	<polygon style="fill:#FFFFFF;stroke:#263238;stroke-linecap:round;stroke-linejoin:round;stroke-miterlimit:10;" points="
		217.329,315.306 212.543,310.547 209.148,315.328 	"/>
	<polygon style="fill:#FFFFFF;stroke:#263238;stroke-linecap:round;stroke-linejoin:round;stroke-miterlimit:10;" points="
		204.827,345.715 200.042,340.956 196.646,345.738 	"/>
	<polygon style="fill:#FFFFFF;stroke:#263238;stroke-linecap:round;stroke-linejoin:round;stroke-miterlimit:10;" points="
		126.177,408.799 121.405,413.572 126.177,416.98 	"/>
	<polygon style="fill:#FFFFFF;stroke:#263238;stroke-linecap:round;stroke-linejoin:round;stroke-miterlimit:10;" points="
		46.681,386.76 41.909,391.532 46.681,394.941 	"/>
	<polygon style="fill:#FFFFFF;stroke:#263238;stroke-linecap:round;stroke-linejoin:round;stroke-miterlimit:10;" points="
		88.172,383.117 83.386,378.358 79.991,383.14 	"/>
	<polygon style="fill:#FFFFFF;stroke:#263238;stroke-linecap:round;stroke-linejoin:round;stroke-miterlimit:10;" points="
		75.67,413.527 70.885,408.768 67.489,413.549 	"/>
	<polygon style="fill:#FFFFFF;stroke:#263238;stroke-linecap:round;stroke-linejoin:round;stroke-miterlimit:10;" points="
		444.662,389.155 439.89,393.927 444.662,397.336 	"/>
	<polygon style="fill:#FFFFFF;stroke:#263238;stroke-linecap:round;stroke-linejoin:round;stroke-miterlimit:10;" points="
		365.166,367.115 360.394,371.887 365.166,375.296 	"/>
	<polygon style="fill:#FFFFFF;stroke:#263238;stroke-linecap:round;stroke-linejoin:round;stroke-miterlimit:10;" points="
		406.657,363.473 401.871,358.713 398.476,363.495 	"/>
	<polygon style="fill:#FFFFFF;stroke:#263238;stroke-linecap:round;stroke-linejoin:round;stroke-miterlimit:10;" points="
		394.155,393.882 389.37,389.123 385.974,393.904 	"/>
	<polygon style="fill:#FFFFFF;stroke:#263238;stroke-linecap:round;stroke-linejoin:round;stroke-miterlimit:10;" points="
		459.522,212.354 454.75,217.126 459.522,220.535 	"/>
	<polygon style="fill:#FFFFFF;stroke:#263238;stroke-linecap:round;stroke-linejoin:round;stroke-miterlimit:10;" points="
		380.025,190.314 375.253,195.087 380.025,198.495 	"/>
	<polygon style="fill:#FFFFFF;stroke:#263238;stroke-linecap:round;stroke-linejoin:round;stroke-miterlimit:10;" points="
		421.516,186.672 416.731,181.913 413.335,186.694 	"/>
	<polygon style="fill:#FFFFFF;stroke:#263238;stroke-linecap:round;stroke-linejoin:round;stroke-miterlimit:10;" points="
		409.015,217.081 404.23,212.322 400.834,217.104 	"/>
	<polygon style="fill:#FFFFFF;stroke:#263238;stroke-linecap:round;stroke-linejoin:round;stroke-miterlimit:10;" points="
		132.796,117.224 128.024,121.996 132.796,125.405 	"/>
	<polygon style="fill:#FFFFFF;stroke:#263238;stroke-linecap:round;stroke-linejoin:round;stroke-miterlimit:10;" points="
		174.287,113.582 169.501,108.822 166.106,113.604 	"/>
	<polygon style="fill:#FFFFFF;stroke:#263238;stroke-linecap:round;stroke-linejoin:round;stroke-miterlimit:10;" points="
		161.786,143.991 157,139.232 153.605,144.014 	"/>
	<polygon style="fill:#FFFFFF;stroke:#263238;stroke-linecap:round;stroke-linejoin:round;stroke-miterlimit:10;" points="
		53.3,95.185 48.527,99.957 53.3,103.366 	"/>
	<polygon style="fill:#FFFFFF;stroke:#263238;stroke-linecap:round;stroke-linejoin:round;stroke-miterlimit:10;" points="
		94.79,91.542 90.005,86.783 86.609,91.565 	"/>
	<polygon style="fill:#FFFFFF;stroke:#263238;stroke-linecap:round;stroke-linejoin:round;stroke-miterlimit:10;" points="
		82.289,121.952 77.504,117.192 74.108,121.974 	"/>
	<polygon style="fill:#FFFFFF;stroke:#263238;stroke-linecap:round;stroke-linejoin:round;stroke-miterlimit:10;" points="
		422.177,130.003 417.405,134.775 422.177,138.184 	"/>
	<polygon style="fill:#FFFFFF;stroke:#263238;stroke-linecap:round;stroke-linejoin:round;stroke-miterlimit:10;" points="
		463.668,126.36 458.882,121.601 455.487,126.383 	"/>
	<polygon style="fill:#FFFFFF;stroke:#263238;stroke-linecap:round;stroke-linejoin:round;stroke-miterlimit:10;" points="
		451.166,156.77 446.381,152.011 442.985,156.792 	"/>
	<polygon style="fill:#FFFFFF;stroke:#263238;stroke-linecap:round;stroke-linejoin:round;stroke-miterlimit:10;" points="
		138.894,46.794 134.108,42.035 130.713,46.817 	"/>
	<polygon style="fill:#FFFFFF;stroke:#263238;stroke-linecap:round;stroke-linejoin:round;stroke-miterlimit:10;" points="
		126.393,77.204 121.607,72.445 118.212,77.226 	"/>
</g>
</svg>
